<?xml version="1.0" encoding="UTF-8" standalone="no"?>
<!-- Created with Inkscape (http://www.inkscape.org/) -->

<svg
   version="1.1"
   id="svg1"
   width="8000"
   height="4000"
   viewBox="0 0 8000 4000"
   sodipodi:docname="vecteezy_continuous-line-drawing-of-gift-box-minimal-style_11131896.eps"
   xmlns:inkscape="http://www.inkscape.org/namespaces/inkscape"
   xmlns:sodipodi="http://sodipodi.sourceforge.net/DTD/sodipodi-0.dtd"
   xmlns="http://www.w3.org/2000/svg"
   xmlns:svg="http://www.w3.org/2000/svg">
  <defs
     id="defs1" />
  <sodipodi:namedview
     id="namedview1"
     bordercolor="#000000"
     borderopacity="0.25"
     inkscape:showpageshadow="2"
     inkscape:pageopacity="0.0"
     inkscape:pagecheckerboard="0"
     inkscape:deskcolor="transparent">
    <inkscape:page
       x="0"
       y="0"
       inkscape:label="1"
       id="page1"
       width="8000"
       height="4000"
       margin="0"
       bleed="0" />
  </sodipodi:namedview>
  <g
     id="g1"
     inkscape:groupmode="layer"
     inkscape:label="1">
    <g
       id="group-R5">
      <path
         id="path2"
         d="M 60000,0 H 0 V 30000 H 60000 V 0"
         style="fill:#ffffff;fill-opacity:1;fill-rule:nonzero;stroke:none"
         transform="matrix(0.13333333,0,0,-0.13333333,0,4000)" />
      <path
         id="path3"
         d="m 16610.3,18591.1 c -31.6,-143.9 -52,-276.2 -60.7,-395.3 -22.1,-302.5 34.8,-466 95.5,-518.2 22.8,-19.6 38.3,-17 54.5,-7.2 51.2,31.2 113.9,158.7 64.2,368 -44.4,186.7 -95.6,371.2 -153.5,552.7 z m -3318.8,3640.3 c -7.8,0 -15.6,-0.1 -23.4,-0.3 -441.6,-9.4 -728.4,-291.4 -829.3,-815.3 -59.7,-310 4.2,-659.7 190,-1039.6 167.5,-342.5 433.5,-709.6 790.8,-1090.9 709.8,-757.8 1569.5,-1356 2018.8,-1645.1 743.5,-478.4 1203.7,-657.9 1284.6,-647.8 76.3,13.2 340.1,49.9 725.4,101.8 941.8,895.6 1649.2,1776.6 2060.5,2569.5 381,734.8 503.1,1378.1 343.6,1811.3 -105.6,286.8 -329.8,448.3 -631.2,454.7 -645.9,13.7 -1594.4,-683.5 -2258.5,-2272.9 -103.9,-248.7 -189.5,-483.4 -255.6,-699.9 103.1,-282.8 190.5,-573.7 260.9,-870 71.5,-301 -28.5,-516.2 -159.3,-595.8 -97,-59.1 -212.2,-48.7 -300.5,27.2 -132.8,114.1 -192.5,360.1 -168.2,692.8 15.8,215.4 64.5,462.7 145.5,739.8 -310.4,828 -758.1,1579.7 -1301.9,2174.4 -634.8,694.5 -1340,1106.1 -1892.2,1106.1 z M 12189.5,5105 h 11513.6 l -745.8,7741.5 c -5.4,56.3 34.7,106.7 90.7,114.2 l 1274.8,168.9 -322,4608.1 c -716.6,-92.4 -4718,-608.9 -6457,-842.6 -81.3,-76.5 -164.2,-153.2 -248.8,-230 225.5,-75.7 636.8,-239 1127.7,-550.5 429.3,-272.5 830.7,-602.7 1193,-981.4 452.4,-472.8 844.6,-1022.9 1165.9,-1635.2 127.2,-242.2 184.9,-401.7 103.6,-499.8 -82.4,-99.6 -221.4,-57.4 -413.7,1.2 -259.9,79.2 -615.9,187.5 -878.2,-18.8 -324.8,-255.5 -457.6,-934.7 -394.8,-2018.6 7.4,-126.4 16.5,-283.7 -104.4,-308.1 -100.2,-20.2 -156.1,87.6 -182.9,139.4 -30.2,58.4 -67.5,144.3 -114,262.6 -86.3,219.3 -196.5,529.9 -324.1,889.6 -247.5,697.5 -555.6,1565.7 -887.8,2334.9 -355.7,823.6 -670.1,1367.6 -935.7,1619.3 -37.9,-94.5 -88.9,-287 -138.6,-474.3 -114.5,-431.8 -287.5,-1084.4 -592.6,-1809.1 -364.2,-865.4 -835,-1634.1 -1399,-2284.8 -55.8,-64.4 -113.2,-59.4 -142.5,-50.7 -89.1,26.5 -101.4,117 -121.9,267 -33.1,242 -88.4,646.9 -408.7,810.3 -341.9,174.3 -913.2,49.5 -1698.1,-371 -81.7,-43.7 -143.9,-39.7 -185,12 -54,67.9 -3.9,144.3 12.5,169.4 17.9,27.3 44.6,62.5 84,110.7 70.9,86.6 174.5,204.9 305.7,354.7 680.1,776.6 2070.1,2363.8 2671.7,3888.6 l -6073.97,-842.6 c 90.45,-567.4 518.92,-3249.9 662.52,-4053.3 l 1443.55,184.7 c 56.7,7.2 108.6,-32 117.2,-88.4 z M 23889.2,4163.9 H 1304.26 c -57.98,0 -105,47 -105,105 0,58 47.02,105 105,105 H 23773.5 l -50.2,521.1 H 12099.2 c -51.9,0 -96,38 -103.8,89.3 L 10994.1,11590 9553.51,11405.6 c -55.28,-7.1 -106.35,30.2 -116.55,84.9 -135.54,727 -692.46,4226.9 -698.08,4262.2 -4.43,27.8 2.54,56.3 19.33,79 16.79,22.6 42,37.6 69.94,41.5 l 6354.85,881.6 c 36.4,5 72.8,-9.3 96,-37.8 23.1,-28.5 29.7,-67 17.3,-101.6 -576,-1611.3 -2059.8,-3305.6 -2773,-4119.9 -45.9,-52.5 -91.2,-104.2 -133.7,-153.1 308.6,142.3 584.5,234.9 823.2,275.9 290.7,49.9 535.9,25.3 728.9,-73.2 412.1,-210.1 483.3,-690.7 519.8,-957.4 1196.3,1439 1617.4,3027.4 1846.5,3891.5 120.2,453.2 165.1,622.8 282.5,661.1 45.5,14.9 94.3,5 133.9,-27 690.9,-558.9 1446.6,-2688.4 1946.6,-4097.6 109,-307.1 220,-620.1 307.6,-846.9 -37,1043.8 122.2,1691.5 484.9,1976.8 348.3,274.1 782.1,142.1 1069.1,54.7 55.8,-17 126.3,-38.4 173.2,-47.6 -11.5,40.1 -40.1,114.3 -110.1,247.8 -704.4,1342.1 -1627.2,2117.4 -2277.3,2531.5 -705.5,449.3 -1251.6,582.7 -1257,584 -38.1,9 -68,38.5 -77.6,76.5 -9.5,37.9 2.8,78.1 32,104.1 56,49.8 111.4,99.7 166.1,149.5 -221.2,-30.3 -370.4,-51.5 -423.6,-60.7 -59.3,-10.2 -177.6,-5 -519.7,157.5 -240.6,114.3 -530.8,277.9 -839.1,473 -436.8,276.4 -1278.9,851.6 -2010.9,1598.2 -408.7,416.9 -716.2,821.1 -914,1201.5 -232.8,447.8 -314.3,865 -242,1239.9 60.8,315.9 184.4,561.9 367.3,731.1 176.6,163.2 399.9,248.8 663.7,254.5 615.1,13.4 1391,-425.7 2075.1,-1174.1 508.1,-555.7 934.8,-1243.4 1248.4,-2001.2 52.6,150.1 113.2,307.4 181.9,471.9 322.2,771 738.9,1403.1 1205.2,1828.1 415.4,378.5 860,582.6 1251.6,573.9 388,-8.4 688.3,-224.2 823.7,-592.1 180.2,-489.3 54.4,-1192.7 -354.2,-1980.5 -230.8,-445 -549.6,-915.3 -947.7,-1398.1 -277.7,-336.7 -594.9,-680.5 -948.1,-1027.7 2003.7,267.2 6065.3,790.6 6284.9,818.9 28.7,3.7 57.6,-4.6 80,-22.9 22.3,-18.3 36.2,-45.1 38.2,-73.9 l 336.6,-4817.6 c 3.8,-55.4 -36,-104.2 -91,-111.5 L 23176,12765.8 23914.1,5105 h 34841.4 c 58,0 105,-47 105,-105 0,-58 -47,-105 -105,-105 H 23934.3 l 59.4,-616.1 c 2.8,-29.4 -6.9,-58.7 -26.8,-80.6 -19.9,-21.9 -48.1,-34.4 -77.7,-34.4"
         style="fill:#000000;fill-opacity:1;fill-rule:nonzero;stroke:none"
         transform="matrix(0.13333333,0,0,-0.13333333,0,4000)" />
    </g>
  </g>
</svg>
