<?xml version="1.0" encoding="utf-8"?>
<!-- Generator: Adobe Illustrator 27.9.0, SVG Export Plug-In . SVG Version: 6.00 Build 0)  -->
<svg version="1.1" id="logo" xmlns="http://www.w3.org/2000/svg" xmlns:xlink="http://www.w3.org/1999/xlink" x="0px" y="0px"
	 viewBox="0 0 822 306.1" style="enable-background:new 0 0 822 306.1;" xml:space="preserve">
<style type="text/css">
	.st0{fill:none;stroke:#000000;stroke-width:4;stroke-linecap:round;stroke-linejoin:round;stroke-miterlimit:10;}
</style>
<g id="euch">
	<polyline class="st0" points="156.1,205 121.7,205 121.7,258.8 156.1,258.8 	"/>
	<path class="st0" d="M166.3,205v36.7c0,9.5,7.7,17.2,17.2,17.2h0c9.5,0,17.2-7.7,17.2-17.2V205"/>
	<path class="st0" d="M243.8,205h-10.3c-12.5,0-22.7,10.2-22.7,22.7v8.5c0,12.5,10.2,22.7,22.7,22.7h10.3"/>
	<line class="st0" x1="289.7" y1="258.8" x2="289.7" y2="205"/>
	<line class="st0" x1="255.3" y1="205" x2="255.3" y2="258.8"/>
	<line class="st0" x1="166.3" y1="61.8" x2="192.4" y2="61.8"/>
	<line class="st0" x1="299.9" y1="61.8" x2="334.3" y2="61.8"/>
	<line class="st0" x1="344.4" y1="61.8" x2="368.9" y2="61.8"/>
	<line class="st0" x1="121.8" y1="231.9" x2="147.1" y2="231.9"/>
	<line class="st0" x1="255.3" y1="231.9" x2="289.7" y2="231.9"/>
</g>
<g id="fur">
	<polyline class="st0" points="156.1,119.9 121.7,119.9 121.7,146.9 121.7,173.8 	"/>
	<line class="st0" x1="200.6" y1="122.6" x2="200.6" y2="119.9"/>
	<path class="st0" d="M166.3,130.8v25.8c0,9.5,7.7,17.2,17.2,17.2h0c9.5,0,17.2-7.7,17.2-17.2v-25.8"/>
	<line class="st0" x1="166.3" y1="119.9" x2="166.3" y2="122.6"/>
	<path class="st0" d="M210.8,173.8v-53.8h20.6c7.6,0,13.8,6.2,13.8,13.8v0c0,7.6-6.2,13.8-13.8,13.8h-20.6"/>
	<line class="st0" x1="245.8" y1="173.8" x2="220.4" y2="148.4"/>
	<line class="st0" x1="147.1" y1="146.9" x2="121.7" y2="146.9"/>
</g>
<g id="geschenk">
	<path class="st0" d="M141.5,62.7l14.6,0v26.1h-11.7c-12.5,0-22.7-10.2-22.7-22.7v-8.5c0-12.5,10.2-22.7,22.7-22.7h10.3"/>
	<polyline class="st0" points="199.5,88.8 166.3,88.8 166.3,34.9 199.5,34.9 	"/>
	<path class="st0" d="M212.9,85.3c9.5,4.1,19.3,3.2,19.3,3.2c6.5,0,14.2-3.5,14.2-9.6c-0.2-17.5-35.5-18.5-35.5-34.3
		c0-6.1,7.6-9.6,14.2-9.6c0,0,9.8-0.9,19.3,3.2"/>
	<path class="st0" d="M288.3,34.9H278c-12.5,0-22.7,10.2-22.7,22.7v8.5c0,12.5,10.2,22.7,22.7,22.7h10.3"/>
	<line class="st0" x1="334.3" y1="88.8" x2="334.3" y2="34.9"/>
	<line class="st0" x1="299.9" y1="34.9" x2="299.9" y2="88.8"/>
	<polyline class="st0" points="377.4,34.9 344.4,34.9 344.4,88.8 377.4,88.8 	"/>
	<polyline class="st0" points="389,88.8 389,34.9 423.4,88.8 423.4,34.9 	"/>
	<polyline class="st0" points="466.8,88.8 433.9,61.8 466.8,34.9 	"/>
	<line class="st0" x1="433.5" y1="34.9" x2="433.5" y2="88.8"/>
</g>
<g id="line">
	<path class="st0" d="M798.8,281.7H488l12.8-121l-20.4-2.5l5.6-69.4L588,103.4c3.1,0.4,6.3-0.1,9-1.7C651.5,71,662,35.6,644.9,26.9
		c-18.8-9.6-54.3,34.2-57.6,62.4c-0.2,1.9,1,3.6,2.9,4l0,0c2.3,0.4,4.3-1.4,4.2-3.7c-1.4-30.4-30.6-69.4-45.6-58
		c-23.7,18.1,34.9,75.6,34.9,75.6c-41.9,15.2-53.4,51.7-53.4,51.7s14.9-9.1,21.4-0.5c8.7,11.5,5.2,33.2,5.2,33.2
		s16.7-60.3,34.3-76.6c0,0,6.9,44.2,32.2,67.1c0,0-2.4-12.5,8.9-17.1c9.4-3.8,24.8,6.6,24.8,6.6s-31.4-28.9-44.4-65l90.6,13.3
		l-9.2,60.2l-24-2.6l-14.8,94H23.3"/>
</g>
</svg>
